<?xml version="1.0" encoding="UTF-8"?>
<!DOCTYPE svg PUBLIC "-//W3C//DTD SVG 1.1//EN" "http://www.w3.org/Graphics/SVG/1.1/DTD/svg11.dtd">
<!-- Creator: CorelDRAW X8 -->
<svg xmlns="http://www.w3.org/2000/svg" xml:space="preserve" width="32px" height="30px" version="1.1" style="shape-rendering:geometricPrecision; text-rendering:geometricPrecision; image-rendering:optimizeQuality; fill-rule:evenodd; clip-rule:evenodd"
viewBox="0 0 32 30"
 xmlns:xlink="http://www.w3.org/1999/xlink">
 <defs>
  <style type="text/css">
   <![CDATA[
    .fil0 {fill:black}
   ]]>
  </style>
 </defs>
 <g id="Layer_x0020_1">
  <metadata id="CorelCorpID_0Corel-Layer"/>
  <g id="_1525294658944">
   <g>
    <path class="fil0" d="M8 17c4,0 7,3 7,6 0,4 -3,7 -7,7 -3,0 -6,-3 -6,-7 0,-3 3,-6 6,-6zm0 3c2,0 3,2 3,3 0,2 -1,4 -3,4 -2,0 -3,-2 -3,-4 0,-1 1,-3 3,-3z"/>
    <path class="fil0" d="M23 17c4,0 7,3 7,6 0,4 -3,7 -7,7 -3,0 -6,-3 -6,-7 0,-3 3,-6 6,-6zm0 3c2,0 3,2 3,3 0,2 -1,4 -3,4 -1,0 -3,-2 -3,-4 0,-1 2,-3 3,-3z"/>
   </g>
   <path class="fil0" d="M15 15c-8,0 -15,-7 -15,-15l4 0c0,6 5,11 11,11l0 0 0 0c7,0 12,-5 12,-11l4 0c0,8 -7,15 -15,15l-1 0z"/>
  </g>
 </g>
</svg>
