<?xml version="1.0" encoding="UTF-8"?>
<!DOCTYPE svg PUBLIC "-//W3C//DTD SVG 1.1//EN" "http://www.w3.org/Graphics/SVG/1.1/DTD/svg11.dtd">
<!-- Creator: CorelDRAW X8 -->
<svg xmlns="http://www.w3.org/2000/svg" xml:space="preserve" width="32px" height="30px" version="1.1" style="shape-rendering:geometricPrecision; text-rendering:geometricPrecision; image-rendering:optimizeQuality; fill-rule:evenodd; clip-rule:evenodd"
viewBox="0 0 32 30"
 xmlns:xlink="http://www.w3.org/1999/xlink">
 <defs>
  <style type="text/css">
   <![CDATA[
    .fil0 {fill:black}
   ]]>
  </style>
 </defs>
 <g id="Layer_x0020_1">
  <metadata id="CorelCorpID_0Corel-Layer"/>
  <g id="_1525288204448">
   <polygon class="fil0" points="5,21 5,24 8,25 8,25 3,30 0,27 2,25 3,23 "/>
   <path class="fil0" d="M16 0c-8,0 -15,7 -15,15 0,8 7,15 15,15l1 0c8,0 15,-7 15,-15 0,-8 -7,-15 -15,-15l-1 0zm-11 15c0,-6 5,-11 11,-11l1 0 0 0c6,0 11,5 11,11 0,6 -5,11 -11,11l0 0 -1 0c-6,0 -11,-5 -11,-11z"/>
  </g>
 </g>
</svg>
